<?xml version="1.0" encoding="utf-8"?>
<!-- Generator: Adobe Illustrator 22.1.0, SVG Export Plug-In . SVG Version: 6.00 Build 0)  -->
<svg version="1.1" id="Layer_1" xmlns="http://www.w3.org/2000/svg" xmlns:xlink="http://www.w3.org/1999/xlink" x="0px" y="0px"
	 viewBox="0 0 1527.8 414.1" style="enable-background:new 0 0 1527.8 414.1;" xml:space="preserve">
<style type="text/css">
	.st0{fill:#FFFFFF;}
</style>
<g>
	<g>
		<path class="st0" d="M198.2,362.9H37.7v-32.8h160.5V362.9z"/>
		<path class="st0" d="M316.9,333.8c-27.5,0-49.5-8.8-66-26.5c-16.5-17.6-24.7-40-24.7-67.2V233c0-28.3,7.8-51.7,23.4-70
			c15.6-18.3,36.5-27.5,62.7-27.3c25.8,0,45.7,7.8,60,23.3c14.2,15.5,21.3,36.5,21.3,63v28H279.7l-0.4,1.1
			c0.9,12.6,5.1,22.9,12.6,31s17.6,12.2,30.4,12.2c11.4,0,20.9-1.1,28.4-3.4c7.5-2.3,15.8-5.9,24.7-10.8l13.9,31.8
			c-7.9,6.2-18.1,11.5-30.6,15.7C346.3,331.6,332.3,333.8,316.9,333.8z M312.3,175.4c-9.5,0-17.1,3.6-22.6,10.9
			c-5.5,7.3-8.9,16.9-10.2,28.8l0.5,0.9h63.1v-4.6c0-10.9-2.6-19.7-7.7-26.2C330.4,178.6,322.7,175.4,312.3,175.4z"/>
		<path class="st0" d="M415.2,299.2l24.7-5.3V175.5l-27.3-5.3v-31h75.3l2.3,27.3c6.4-9.8,14.2-17.3,23.5-22.8
			c9.3-5.4,19.7-8.1,31.2-8.1c19.3,0,34.3,6.1,45.2,18.2c10.8,12.1,16.2,31.1,16.2,57v83.1l24.7,5.3v30.9h-98.4v-30.9l22.1-5.3V211
			c0-12.8-2.6-21.9-7.8-27.3c-5.2-5.3-13-8-23.5-8c-6.8,0-12.9,1.4-18.3,4.1c-5.4,2.8-9.9,6.7-13.6,11.7v102.3l20.8,5.3v30.9h-97
			V299.2z"/>
		<path class="st0" d="M650.1,299.2l24.9-5.3V175.4h-28.4v-36.2H675V118c0-21.4,6.2-37.9,18.5-49.5c12.3-11.6,29.7-17.4,52-17.4
			c4.3,0,8.8,0.3,13.3,1c4.5,0.6,9.5,1.6,14.9,2.7l-4.4,38.3c-2.8-0.5-5.6-0.9-8.2-1.2c-2.6-0.4-5.7-0.5-9.3-0.5
			c-8.4,0-14.7,2.3-19,6.9c-4.3,4.6-6.4,11.2-6.4,19.8v21.2h37.9v36.2h-37.9v118.5l24.9,5.3v30.9H650.1V299.2z"/>
		<path class="st0" d="M781.7,232.9c0-28.5,8-51.8,23.9-69.9c15.9-18.2,38-27.3,66.1-27.3c28.2,0,50.3,9.1,66.2,27.2
			c15.9,18.1,23.9,41.5,23.9,70v3.7c0,28.7-8,52.1-23.9,70.1C922,324.7,900,333.8,872,333.8c-28.3,0-50.5-9-66.4-27.1
			c-15.9-18-23.9-41.4-23.9-70.1V232.9z M833.2,236.6c0,17.4,3.1,31.4,9.2,41.9c6.1,10.5,16,15.8,29.6,15.8c13.3,0,23-5.3,29.2-15.9
			c6.2-10.6,9.3-24.5,9.3-41.8v-3.7c0-16.9-3.1-30.8-9.3-41.5c-6.2-10.7-16.1-16.1-29.5-16.1c-13.4,0-23.2,5.4-29.3,16.1
			c-6.1,10.7-9.2,24.5-9.2,41.5V236.6z"/>
		<path class="st0" d="M988.1,299.2l24.7-5.3V175.5l-27.3-5.3v-31h75.3l2.3,27.9c4.5-9.9,10.2-17.6,17.3-23.1
			c7.1-5.5,15.2-8.3,24.5-8.3c2.7,0,5.6,0.2,8.6,0.6c3,0.4,5.5,0.9,7.5,1.5l-5.5,46.9l-21.2-0.5c-7.5,0-13.8,1.5-18.7,4.4
			c-4.9,2.9-8.7,7.1-11.3,12.5v92.8l24.7,5.3v30.9H988.1V299.2z"/>
		<path class="st0" d="M1222.5,294.3c9.2,0,16.5-2.7,22.1-8c5.5-5.3,8.3-12.5,8.3-21.4h46.6l0.5,1.1c0.5,19.3-6.8,35.4-21.7,48.4
			c-14.9,13-33.5,19.5-55.7,19.5c-28.5,0-50.4-9-65.8-27c-15.4-18-23.1-41.1-23.1-69.3v-5.3c0-28.1,7.9-51.2,23.7-69.3
			c15.8-18.1,38.4-27.2,67.6-27.2c15.4,0,29.2,2.3,41.5,6.9c12.2,4.6,22.4,11.1,30.5,19.4l0.7,51h-41.8l-8.5-29.8
			c-2.6-2.2-5.8-4.1-9.5-5.6c-3.8-1.5-8.1-2.2-12.9-2.2c-14.6,0-24.9,5.3-30.9,15.9s-9,24.2-9,40.9v5.3c0,17.1,2.8,30.8,8.3,41.2
			C1198.9,289.1,1208.6,294.3,1222.5,294.3z"/>
		<path class="st0" d="M1414.6,333.8c-27.5,0-49.5-8.8-66-26.5c-16.5-17.6-24.7-40-24.7-67.2V233c0-28.3,7.8-51.7,23.4-70
			s36.5-27.5,62.7-27.3c25.8,0,45.7,7.8,60,23.3c14.2,15.5,21.3,36.5,21.3,63v28h-113.9l-0.4,1.1c0.9,12.6,5.1,22.9,12.6,31
			s17.6,12.2,30.4,12.2c11.4,0,20.9-1.1,28.4-3.4c7.5-2.3,15.8-5.9,24.7-10.8l13.9,31.8c-7.9,6.2-18.1,11.5-30.6,15.7
			C1444,331.6,1430,333.8,1414.6,333.8z M1410,175.4c-9.5,0-17.1,3.6-22.6,10.9c-5.5,7.3-8.9,16.9-10.2,28.8l0.5,0.9h63.1v-4.6
			c0-10.9-2.6-19.7-7.7-26.2C1428.1,178.6,1420.4,175.4,1410,175.4z"/>
	</g>
</g>
</svg>
